<?xml version="1.0" encoding="iso-8859-1"?>
<!-- Generator: Adobe Illustrator 19.0.0, SVG Export Plug-In . SVG Version: 6.00 Build 0)  -->
<svg version="1.1" id="Layer_1" xmlns="http://www.w3.org/2000/svg" xmlns:xlink="http://www.w3.org/1999/xlink" x="0px" y="0px"
	 viewBox="0 0 512 512" style="enable-background:new 0 0 512 512;" xml:space="preserve">
<g transform="translate(1 1)">
	<polygon style="fill:#CCCCCC;" points="391.533,97.133 178.2,97.133 178.2,472.6 502.467,472.6 502.467,97.133 	"/>
	<polygon style="fill:#FFFFFF;" points="220.867,97.133 178.2,37.4 7.533,37.4 7.533,97.133 7.533,472.6 331.8,472.6 331.8,97.133 	
		"/>
	<polygon style="fill:#E2E3E5;" points="220.867,97.133 178.2,37.4 33.133,37.4 33.133,97.133 33.133,472.6 476.867,472.6 
		476.867,97.133 	"/>
	<polygon style="fill:#FFFFFF;" points="502.467,156.867 263.533,156.867 263.533,156.867 220.867,97.133 502.467,97.133 	"/>
	<g>
		<path style="fill:#B6B6B6;" d="M502.467,481.133H7.533C2.413,481.133-1,477.72-1,472.6V37.4c0-5.12,3.413-8.533,8.533-8.533H178.2
			c2.56,0,5.12,1.707,6.827,3.413l40.107,56.32h277.333c5.12,0,8.533,3.413,8.533,8.533V472.6
			C511,477.72,507.587,481.133,502.467,481.133z M16.067,464.067h477.867v-358.4H220.867c-2.56,0-5.12-1.707-6.827-3.413
			l-40.107-56.32H16.067V464.067z"/>
		<path style="fill:#B6B6B6;" d="M263.533,165.4c-2.56,0-5.12-0.853-6.827-3.413L171.373,42.52
			c-2.56-3.413-1.707-9.387,1.707-11.947c3.413-2.56,9.387-1.707,11.947,1.707l85.333,119.467c2.56,3.413,1.707,9.387-1.707,11.947
			C266.947,164.547,265.24,165.4,263.533,165.4z"/>
		<path style="fill:#B6B6B6;" d="M502.467,165.4H263.533c-5.12,0-8.533-3.413-8.533-8.533c0-5.12,3.413-8.533,8.533-8.533h238.933
			c5.12,0,8.533,3.413,8.533,8.533C511,161.987,507.587,165.4,502.467,165.4z"/>
	</g>
</g>
<g>
</g>
<g>
</g>
<g>
</g>
<g>
</g>
<g>
</g>
<g>
</g>
<g>
</g>
<g>
</g>
<g>
</g>
<g>
</g>
<g>
</g>
<g>
</g>
<g>
</g>
<g>
</g>
<g>
</g>
</svg>
